<?xml version="1.0" encoding="UTF-8"?>
<svg id="Layer_1" xmlns="http://www.w3.org/2000/svg" version="1.1" viewBox="0 0 800 800">
  <!-- Generator: Adobe Illustrator 29.6.1, SVG Export Plug-In . SVG Version: 2.1.1 Build 9)  -->
  <defs>
    <style>
      .st0, .st1 {
        fill: #fff;
      }

      .st1 {
        isolation: isolate;
        opacity: .5;
      }
    </style>
  </defs>
  <path class="st0" d="M292,591.7c-15.3,0-30.2-6.1-41.5-15.7-.5-.4-1-.8-1.4-1.3l-22-22c-15.5-15.4-18.7-31.7-18.7-42.6,0-23.6,14.3-39.7,18.7-44.1l178.4-177.7c-6.1-14.8-13.1-37.6-13.1-64.4,0-100.5,82.1-182.3,183-182.3s183,81.8,183,182.3-82.1,182.3-183,182.3-38-.4-65.6-12.2l-4.9,4.8c1.3,1.8,2.5,3.8,3.8,6,10.4,15.6,20.8,48.1-1.1,78.7-.1.2-.2.3-.3.5-4.8,6.3-22.6,27.1-52.5,29.2-4.7.3-10.3.2-16.4-.9-1,9.7-4.5,19.8-11.6,29.8-.1.2-.2.3-.3.5-9.2,12.2-27.3,25.8-50.5,27.5-8.8.6-20.4-.4-32.8-6.3l-10.9,10.8c-12,12-26.2,17-40.1,17ZM283.5,538.4c1.6,1.2,4.5,2.8,7.4,3.2,2.1.3,3.6,0,6-2.3l25.7-25.6c9.8-9.7,25.5-9.7,35.3,0,7.2,7.2,12.6,6.8,14.4,6.7,6.3-.4,11.8-4.7,14-7.4,2.5-3.7,3.1-7,1.8-11.5-1.3-4.5-3.8-8-4.4-8.7-8.9-9.9-8-24.5,1.4-33.9l7.3-7.3c9.8-9.7,25.5-9.7,35.3,0,5.9,5.8,14.7,12.7,23.4,12.1,7.4-.5,13.4-5.9,16-9.2,3-4.3,3.9-8.4,2.9-13.5-.8-4.4-2.8-7.7-3.3-8.5-.9-1.2-1.2-1.8-1.9-3.2-.6-1.2-1.8-2.5-3.4-4.2-4.2-4.5-11.9-12.9-11.8-26.1,0-13.7,8.7-24,16.2-31.5l22.1-22c9.1-9.1,23.7-9.8,33.6-1.5,9,7.5,35.1,12.5,53.8,12.5,73.3,0,133-59.4,133-132.3s-59.7-132.3-133-132.3-133,59.4-133,132.3,13.8,54.9,14.6,56.3c6.3,9.9,4.8,22.6-3.6,30.9l-191,190.3c-1.6,1.6-4,5.5-4,8.6,0,.8,0,3.2,4,7.2l21.1,21.1ZM383.7,492.8s0,0,0,0c0,0,0,0,0,0ZM383.5,492.5s0,0,0,0c0,0,0,0,0,0ZM466.6,432.1h0Z"/>
  <path class="st1" d="M575.3,303.9c-44.2,0-80.1-35.8-80.1-79.9s35.9-79.9,80.1-79.9,80.1,35.8,80.1,79.9-35.9,79.9-80.1,79.9ZM575.3,194.1c-16.6,0-30.1,13.4-30.1,29.9s13.5,29.9,30.1,29.9,30.1-13.4,30.1-29.9-13.5-29.9-30.1-29.9Z"/>
  <path class="st1" d="M400.3,758.3c-80.9,0-139.3,0-186.4-6.3-52.9-7.1-88.7-22.5-116.1-49.9-27.4-27.4-42.7-63.2-49.9-116.1-6.3-47.1-6.3-105.5-6.3-186.4s0-139.3,6.3-186.4c7.1-52.9,22.5-88.7,49.9-116.1,43.8-43.8,104.7-53.3,201.8-55.5,13.8-.3,25.2,10.6,25.6,24.4.3,13.8-10.6,25.2-24.4,25.6-97,2.2-139.3,12.5-167.6,40.9-41.5,41.5-41.5,116.9-41.5,267.1s0,225.6,41.5,267.1c41.5,41.5,116.9,41.5,267.1,41.5s225.6,0,267.1-41.5c28.3-28.3,38.7-70.6,40.9-167.6.3-13.6,11.4-24.4,25-24.4s.4,0,.6,0c13.8.3,24.7,11.8,24.4,25.6-2.2,97.1-11.7,158-55.5,201.8-27.4,27.4-63.2,42.7-116.1,49.9-47.1,6.3-105.5,6.3-186.4,6.3Z"/>
</svg>