<?xml version="1.0" encoding="UTF-8"?>
<svg id="Layer_1" xmlns="http://www.w3.org/2000/svg" version="1.1" viewBox="0 0 800 800">
  <!-- Generator: Adobe Illustrator 29.6.1, SVG Export Plug-In . SVG Version: 2.1.1 Build 9)  -->
  <defs>
    <style>
      .st0 {
        fill: #fff;
      }

      .st1 {
        opacity: .4;
      }
    </style>
  </defs>
  <path class="st0" d="M400,758.3c-48.4,0-95.3-9.5-139.5-28.2-42.7-18-81-43.9-113.9-76.8-32.9-32.9-58.7-71.2-76.8-113.9-18.7-44.2-28.2-91.1-28.2-139.5s9.5-95.3,28.2-139.5c18-42.7,43.9-81,76.8-113.9s71.2-58.7,113.9-76.8c44.2-18.7,91.1-28.2,139.5-28.2s95.3,9.5,139.5,28.2c42.7,18,81,43.9,113.9,76.8,32.9,32.9,58.7,71.2,76.8,113.9,18.7,44.2,28.2,91.1,28.2,139.5s-9.5,95.3-28.2,139.5c-18,42.7-43.9,81-76.8,113.9-32.9,32.9-71.2,58.7-113.9,76.8-44.2,18.7-91.1,28.2-139.5,28.2ZM400,91.7c-170,0-308.3,138.3-308.3,308.3s138.3,308.3,308.3,308.3,308.3-138.3,308.3-308.3S570,91.7,400,91.7Z"/>
  <g class="st1">
    <path class="st0" d="M300,725h-33.3c-13.8,0-25-11.2-25-25s10.8-24.6,24.3-25c-26.4-89.3-39.7-181.6-39.7-275s13.3-185.7,39.7-275c-13.5-.4-24.3-11.4-24.3-25s11.2-25,25-25h33.3c8,0,15.6,3.9,20.3,10.4,4.7,6.5,6,14.9,3.4,22.5-62.9,188.4-62.9,395.8,0,584.2,2.5,7.6,1.3,16-3.4,22.5-4.7,6.5-12.2,10.4-20.3,10.4Z"/>
    <path class="st0" d="M500,725c-2.6,0-5.3-.4-7.9-1.3-13.1-4.4-20.2-18.5-15.8-31.6,62.9-188.4,62.9-395.8,0-584.2-4.4-13.1,2.7-27.3,15.8-31.6,13.1-4.4,27.3,2.7,31.6,15.8,33.2,99.4,50,203,50,307.9s-16.8,208.5-50,307.9c-3.5,10.5-13.2,17.1-23.7,17.1Z"/>
    <path class="st0" d="M400,573.8c-93.4,0-185.7-13.3-275-39.7-.4,13.5-11.4,24.3-25,24.3s-25-11.2-25-25v-33.3c0-8,3.9-15.6,10.4-20.3,6.5-4.7,14.9-6,22.5-3.4,188.4,62.9,395.8,62.9,584.2,0,7.6-2.5,16-1.3,22.5,3.4,6.5,4.7,10.4,12.2,10.4,20.3v33.3c0,13.8-11.2,25-25,25s-24.6-10.8-25-24.3c-89.3,26.4-181.6,39.7-275,39.7Z"/>
    <path class="st0" d="M700,325c-2.6,0-5.3-.4-7.9-1.3-188.4-62.9-395.8-62.9-584.2,0-13.1,4.4-27.3-2.7-31.6-15.8-4.4-13.1,2.7-27.3,15.8-31.6,99.4-33.2,203-50,307.9-50s208.5,16.8,307.9,50c13.1,4.4,20.2,18.5,15.8,31.6-3.5,10.5-13.2,17.1-23.7,17.1Z"/>
  </g>
</svg>