<?xml version="1.0" encoding="UTF-8"?>
<svg id="Layer_1" xmlns="http://www.w3.org/2000/svg" version="1.1" xmlns:xlink="http://www.w3.org/1999/xlink" viewBox="0 0 1500 657.3">
  <!-- Generator: Adobe Illustrator 29.6.1, SVG Export Plug-In . SVG Version: 2.1.1 Build 9)  -->
  <defs>
    <style>
      .st0 {
        fill: #fff;
      }

      .st1 {
        fill: url(#linear-gradient1);
      }

      .st2 {
        fill: #04013f;
      }

      .st3 {
        fill: url(#linear-gradient);
      }
    </style>
    <linearGradient id="linear-gradient" x1="22.9" y1="134.5" x2="381.2" y2="130.1" gradientUnits="userSpaceOnUse">
      <stop offset="0" stop-color="#daa6eb"/>
      <stop offset=".5" stop-color="#0031d4"/>
      <stop offset=".9" stop-color="#05002f"/>
    </linearGradient>
    <linearGradient id="linear-gradient1" x1="93.6" y1="268.8" x2="477.6" y2="272.3" gradientUnits="userSpaceOnUse">
      <stop offset="0" stop-color="#fff"/>
      <stop offset=".5" stop-color="#b750d8"/>
      <stop offset="1" stop-color="#0031d4"/>
    </linearGradient>
  </defs>
  <g>
    <path class="st0" d="M1031.1,574.4v-106.5h8.1l1,21.1h1.2c.4-2.6,1.7-5.7,3.7-9.3,2.1-3.6,5.3-6.9,9.5-9.8,4.3-2.9,9.7-4.4,16.3-4.4s4.1.1,6.3.3c2.2.2,4,.5,5.5.9v8.9h-7.1c-6.9,0-12.6,1.4-17,4.2-4.5,2.8-7.9,6.3-10.4,10.7-2.5,4.4-4.3,9-5.3,13.8-1,4.8-1.5,9.2-1.5,13.3v56.9h-10.3Z"/>
    <path class="st0" d="M1153.6,576.9c-12.6,0-23-2.1-31.3-6.4-8.3-4.3-14.5-10.5-18.6-18.8-4.1-8.3-6.2-18.5-6.2-30.5s2.1-22.3,6.2-30.6c4.1-8.2,10.3-14.5,18.6-18.7,8.3-4.3,18.7-6.4,31.3-6.4s23,2.1,31.3,6.4c8.3,4.3,14.5,10.5,18.6,18.7,4.1,8.2,6.2,18.4,6.2,30.6s-2.1,22.2-6.2,30.5c-4.1,8.3-10.3,14.6-18.6,18.8-8.3,4.3-18.7,6.4-31.3,6.4ZM1153.6,567.5c8.6,0,16.3-1.4,23.1-4.3,6.7-2.8,12.1-7.5,16-14,3.9-6.5,5.9-15.2,5.9-26.1v-4c0-11.1-2-19.8-5.9-26.2-3.9-6.4-9.2-11-16-13.9-6.8-2.8-14.4-4.3-23.1-4.3s-16.2,1.4-23,4.3c-6.8,2.8-12.2,7.5-16.1,13.9-3.9,6.4-5.9,15.2-5.9,26.2v4c0,10.9,2,19.6,5.9,26.1,3.9,6.5,9.3,11.1,16.1,14,6.8,2.8,14.5,4.3,23,4.3Z"/>
    <path class="st0" d="M1280.2,576.9c-13.6,0-24.1-2.9-31.3-8.6-7.2-5.7-10.8-15.7-10.8-29.9v-70.5h10.3v68.2c0,7.3.8,13,2.5,17.2,1.7,4.2,4.1,7.3,7.2,9.3,3.1,2,6.7,3.3,10.8,3.9,4.1.6,8.5.9,13.3.9,7.2,0,14.1-1.6,20.8-4.7,6.7-3.1,12.2-7.5,16.6-13.3,4.4-5.7,6.6-12.5,6.6-20.3v-61.4h10.3v106.5h-8.1l-1-19.4h-1.6c-4,5.9-8.7,10.5-13.9,13.7-5.2,3.2-10.5,5.3-16,6.5-5.5,1.1-10.7,1.7-15.7,1.7Z"/>
    <path class="st0" d="M1370.1,609.5v-141.5h8.1l1.4,17.4h1.2c4.5-6.7,10.2-11.7,17.1-15,7-3.2,15.2-4.9,24.6-4.9s21.3,2.1,29,6.4c7.7,4.3,13.5,10.5,17.4,18.7,3.9,8.2,5.9,18.4,5.9,30.6s-1.9,22.2-5.7,30.5c-3.8,8.3-9.4,14.6-16.9,18.8-7.5,4.3-16.8,6.4-28,6.4s-12.1-.7-17.4-2.1c-5.3-1.4-10-3.5-14.2-6.3-4.2-2.8-7.8-6.2-10.9-10.2h-1.2v51.2h-10.3ZM1423.3,567.5c7.7,0,14.6-1.4,20.7-4.3,6.1-2.8,10.9-7.5,14.4-14,3.5-6.5,5.3-15.2,5.3-26.1v-4c0-11.1-1.8-19.8-5.5-26.2-3.6-6.4-8.5-11-14.7-13.9-6.1-2.8-13.1-4.3-21-4.3s-15.1,1.4-21.5,4.3c-6.3,2.8-11.4,7.5-15.1,13.9-3.7,6.4-5.6,15.2-5.6,26.2v4c0,8.2,1.1,15.2,3.2,20.9,2.2,5.7,5.2,10.2,9.1,13.7,3.9,3.4,8.5,5.9,13.7,7.5,5.2,1.6,10.8,2.3,16.9,2.3Z"/>
    <path class="st0" d="M903.3,636.4c-6.3,0-11.8-1.2-16.5-3.7-4.8-2.5-8.4-5.9-11.1-10.3-2.6-4.4-3.9-9.3-3.9-14.7s1.8-11.7,5.4-16.5c3.6-4.8,8.2-8.3,13.7-10.5-4-1.6-6.9-4-8.8-7.2-1.9-3.3-2.9-6.6-2.9-10s1.6-8.3,4.9-12.2c3.3-3.9,7.9-6.4,14.1-7.6-5.7-3.3-9.7-7.1-12.1-11.6-2.4-4.5-3.6-9.3-3.6-14.6s1.6-12.2,4.9-17.4c3.3-5.2,8.8-9.3,16.6-12.4,7.8-3.1,18.4-4.6,31.7-4.6s12.4.4,17.5,1.2c5.1.8,9.6,1.9,13.4,3.3,6.5-1.4,12-3.8,16.4-7,4.4-3.3,7.3-7.5,8.7-12.6h11.5c-.4,3.6-1.7,7.1-3.8,10.6-2.1,3.6-5.1,6.6-8.8,9.2-3.8,2.6-8.4,4.2-14,4.9,4.5,3.1,7.7,6.8,9.6,11,1.8,4.2,2.8,8.8,2.8,13.7s-1.6,12-4.9,17.3c-3.3,5.3-8.8,9.4-16.5,12.5-7.7,3.1-18.4,4.6-31.8,4.6h-28.8c-4.4,0-8.2,1-11.3,3.1-3.1,2.1-4.7,5.1-4.7,9.1s1.7,7,5.2,9.1c3.5,2.1,7.8,3.1,12.9,3.1h62.4c8.5,0,15.5,2.8,20.9,8.4,5.4,5.6,8.1,12.5,8.1,20.8s-1.5,11.1-4.5,15.9c-3,4.8-7,8.5-12.1,11.3-5.1,2.8-11,4.2-17.7,4.2h-62.8ZM905,626.6h61.3c4.5,0,8.5-.9,11.8-2.8,3.3-1.8,5.9-4.3,7.8-7.3,1.8-3.1,2.8-6.4,2.8-9.9,0-6.1-1.6-11-4.8-14.7-3.2-3.7-7.6-5.5-13.3-5.5h-66.4c-5.7,0-10.5,2-14.6,6-4,4-6.1,8.7-6.1,14.3s2,10.8,6.1,14.5c4,3.7,9.2,5.5,15.4,5.5ZM935.7,541.8c15.3,0,26.1-2.2,32.3-6.7s9.3-10.4,9.3-17.8-3.1-13.3-9.3-17.8c-6.2-4.5-16.9-6.7-32.3-6.7s-26.1,2.2-32.3,6.7c-6.2,4.5-9.3,10.4-9.3,17.8s1.2,9.1,3.6,12.8c2.4,3.7,6.6,6.6,12.7,8.6,6,2.1,14.4,3.1,25.2,3.1Z"/>
  </g>
  <rect class="st3" x="30.6" y="110.6" width="55.2" height="46.9"/>
  <g>
    <path class="st0" d="M531.6,256.5v-35.9h53.6v35.9h-53.6ZM531.6,430.6v-153h53.6v153h-53.6Z"/>
    <path class="st2" d="M587.4,432.8h-58.1v-157.4h58.1v157.4ZM533.8,428.4h49.1v-148.5h-49.1v148.5ZM587.4,258.7h-58.1v-40.4h58.1v40.4ZM533.8,254.3h49.1v-31.5h-49.1v31.5Z"/>
  </g>
  <g>
    <path class="st0" d="M649.8,490c-7.7,0-14.9-1.4-21.6-4.2-6.7-2.8-12-6.9-16.1-12.3-4.1-5.4-6.1-12.1-6.1-20s2.7-14.9,8.1-20.9c5.4-6,12.6-10.4,21.4-13.3-6.4-3.1-11-7.1-13.9-12-2.9-4.9-4.3-10.2-4.3-15.8,0-8.5,2.9-15.7,8.8-21.7,5.9-6,13.7-9.7,23.3-11-7.7-4.1-14.1-9.2-19.1-15.5-5-6.3-7.5-13.2-7.5-20.7,0-12.4,3.8-22.1,11.3-29.1,7.5-7,18.2-12,32-14.9,13.8-2.9,30.1-4.3,48.8-4.3s12.8.3,18.7.9c5.9.6,11.4,1.4,16.7,2.3,9.8-4.6,16.9-9.5,21.3-14.6,4.3-5.1,6.8-9.3,7.4-12.6h49.2c-.2,7.5-1.9,14-5.2,19.4-3.3,5.4-8,9.8-14,13-6.1,3.3-13.4,5.9-21.9,7.8,6.4,4.1,11.3,8.8,14.8,14.3,3.5,5.5,5.2,11.7,5.2,18.7,0,11.6-3.3,21-9.8,28.1-6.6,7.1-15.7,12.3-27.5,15.5-11.8,3.2-25.6,4.8-41.4,4.8h-38.5c-6.2,0-10.7.9-13.6,2.8-2.9,1.8-4.3,4.2-4.3,7.1s1.3,5.6,4.1,7.5c2.7,1.9,7.5,2.9,14.5,2.9h88.1c16.2,0,28.4,4.4,36.5,13.3,8.1,8.9,12.2,20.2,12.2,33.9s-2.8,19.1-8.3,26.7c-5.5,7.5-12.8,13.4-21.9,17.7-9.1,4.2-19.1,6.4-30.1,6.4h-117ZM676.1,459.6h80.8c3.1,0,5.8-.6,8.3-1.9,2.4-1.3,4.3-3,5.8-5.4s2.2-5,2.2-8.1c0-4.6-1.6-8.3-4.8-10.9-3.2-2.6-7-3.9-11.4-3.9h-80c-4.8,0-8.8,1.3-11.9,3.8-3.1,2.5-4.6,6.1-4.6,10.7s1.5,8.6,4.5,11.4c3,2.8,6.7,4.2,11.2,4.2ZM714.9,342.2c12.2,0,21.6-1.4,28.4-4.3,6.8-2.9,10.1-7.8,10.1-14.8s-3.4-11.9-10.1-14.8c-6.8-2.9-16.2-4.3-28.4-4.3s-21.3,1.4-28.1,4.3c-6.8,2.9-10.1,7.8-10.1,14.8s1.5,8.6,4.6,11.4c3.1,2.8,7.5,4.8,13.2,5.9,5.7,1.2,12.5,1.7,20.4,1.7Z"/>
    <path class="st2" d="M766.8,492.2h-117c-8,0-15.5-1.5-22.4-4.4-7-2.9-12.7-7.3-17-13-4.3-5.8-6.5-13-6.5-21.3s2.9-16,8.7-22.4c4.7-5.2,10.6-9.3,17.8-12.2-4.6-2.9-8.1-6.4-10.5-10.5-3.1-5.2-4.7-10.9-4.7-16.9,0-9.1,3.2-16.9,9.5-23.3,5-5,11.2-8.5,18.7-10.5-5.7-3.7-10.6-8-14.6-13.1-5.3-6.6-8-14.1-8-22.1,0-12.9,4-23.3,12-30.7,7.8-7.3,18.9-12.5,33.1-15.5,13.9-2.9,30.5-4.4,49.3-4.4s13,.3,18.9.9c5.6.6,11.1,1.3,16.1,2.2,9.2-4.4,15.9-9,19.9-13.8,4.1-4.8,6.4-8.7,6.9-11.5l.3-1.8h53.4v2.3c-.3,7.9-2.1,14.8-5.6,20.5-3.5,5.7-8.5,10.4-14.9,13.8-5.1,2.7-11,5-17.6,6.8,4.7,3.6,8.5,7.7,11.4,12.2,3.7,5.8,5.6,12.5,5.6,19.9,0,12.1-3.5,22.1-10.4,29.6-6.8,7.4-16.4,12.9-28.6,16.1-11.9,3.2-26.1,4.9-42,4.9h-38.5c-5.7,0-9.9.8-12.4,2.4-2.3,1.4-3.3,3.1-3.3,5.2s1,4.2,3.1,5.7c1.6,1.1,5.2,2.5,13.2,2.5h88.1c16.8,0,29.6,4.7,38.1,14.1,8.5,9.3,12.8,21.2,12.8,35.4s-2.9,20.1-8.7,28c-5.7,7.8-13.3,14-22.7,18.4-9.3,4.4-19.8,6.6-31.1,6.6ZM714.9,276.4c-18.5,0-34.8,1.4-48.4,4.3-13.3,2.8-23.7,7.6-30.9,14.4-7,6.6-10.6,15.8-10.6,27.5s2.4,13.5,7,19.3c4.8,6,11,11,18.4,14.9l6.1,3.2-6.9,1c-9.1,1.3-16.5,4.8-22,10.4-5.5,5.6-8.2,12.2-8.2,20.2s1.4,10.1,4,14.7c2.7,4.5,7,8.3,13,11.1l5,2.4-5.3,1.7c-8.5,2.8-15.4,7-20.5,12.7-5.1,5.6-7.5,11.9-7.5,19.4s1.9,13.7,5.6,18.7c3.8,5.1,8.9,9,15.2,11.6,6.4,2.7,13.3,4,20.7,4h117c10.6,0,20.4-2.1,29.2-6.2,8.7-4.1,15.8-9.8,21-17,5.2-7.1,7.8-15.6,7.8-25.3s-3.9-24-11.6-32.4c-7.6-8.4-19.4-12.6-34.9-12.6h-88.1c-7.5,0-12.7-1.1-15.8-3.3-3.3-2.4-5-5.5-5-9.3s.9-6.2,5.4-9c3.3-2.1,8.1-3.1,14.8-3.1h38.5c15.6,0,29.3-1.6,40.8-4.7,11.3-3.1,20.2-8.1,26.5-14.9,6.1-6.7,9.3-15.6,9.3-26.6s-1.6-12.4-4.9-17.5c-3.3-5.2-8-9.8-14.1-13.6l-4.5-2.9,5.2-1.2c8.3-1.9,15.4-4.4,21.3-7.6,5.7-3.1,10.1-7.2,13.2-12.2,2.7-4.5,4.3-9.9,4.8-16h-45.2c-1.1,3.3-3.5,7.2-7.4,11.8-4.5,5.3-11.9,10.5-22,15.2l-.6.3h-.7c-5.2-1.1-10.7-1.9-16.5-2.4-5.8-.6-12-.9-18.5-.9ZM757,461.8h-80.8c-5,0-9.3-1.6-12.7-4.8-3.4-3.2-5.2-7.6-5.2-13.1s1.8-9.5,5.5-12.5c3.5-2.8,7.9-4.3,13.3-4.3h80c4.9,0,9.3,1.5,12.9,4.4,3.7,3,5.6,7.3,5.6,12.6s-.8,6.6-2.5,9.3c-1.7,2.6-3.9,4.7-6.7,6.2-2.7,1.4-5.9,2.1-9.3,2.1ZM677,431.7c-4.3,0-7.8,1.1-10.5,3.3-2.6,2.1-3.8,5-3.8,9s1.2,7.4,3.8,9.8c2.6,2.4,5.7,3.6,9.6,3.6h80.8c2.7,0,5.1-.5,7.2-1.6,2.1-1.1,3.7-2.6,4.9-4.6,1.2-1.9,1.8-4.3,1.8-6.9,0-4-1.3-7-4-9.1-2.8-2.3-6.1-3.4-10-3.4h-80ZM714.9,344.5c-8,0-15-.6-20.9-1.8-6.1-1.2-10.9-3.4-14.2-6.5-3.6-3.2-5.4-7.6-5.4-13.1,0-7.9,3.9-13.6,11.5-16.8,7-3,16.8-4.5,29-4.5s22.3,1.5,29.3,4.5c7.6,3.3,11.5,8.9,11.5,16.8s-3.9,13.6-11.5,16.8c-7,3-16.9,4.5-29.3,4.5ZM714.9,306.2c-11.6,0-20.8,1.4-27.2,4.2-5.9,2.5-8.8,6.7-8.8,12.7s1.3,7.4,3.9,9.8c2.8,2.5,6.9,4.3,12.1,5.4,5.5,1.1,12.3,1.7,20,1.7,11.8,0,21.1-1.4,27.5-4.2,5.9-2.5,8.8-6.7,8.8-12.7s-2.9-10.2-8.8-12.7c-6.5-2.8-15.7-4.2-27.5-4.2Z"/>
  </g>
  <g>
    <path class="st0" d="M844.7,256.5v-35.9h53.6v35.9h-53.6ZM844.7,430.6v-153h53.6v153h-53.6Z"/>
    <path class="st2" d="M900.6,432.8h-58.1v-157.4h58.1v157.4ZM847,428.4h49.1v-148.5h-49.1v148.5ZM900.6,258.7h-58.1v-40.4h58.1v40.4ZM847,254.3h49.1v-31.5h-49.1v31.5Z"/>
  </g>
  <g>
    <path class="st0" d="M1012.5,434.1c-12.7,0-23.4-1.4-32-4.3-8.6-2.9-15.1-7.9-19.6-15.1-4.4-7.1-6.7-17.1-6.7-29.8v-70.7h-29.8v-36.5h31.9l10.7-45.5h40.8v45.5h42.6v36.5h-42.6v60.8c0,7.3,1.5,13,4.6,16.9,3.1,4,9.5,5.9,19.1,5.9h18.8v31c-2.7,1-6.4,1.8-11.2,2.6-4.7.8-9.5,1.4-14.3,1.9-4.8.5-9,.7-12.5.7Z"/>
    <path class="st2" d="M1012.5,436.3c-12.9,0-23.9-1.5-32.7-4.5-9.1-3.1-16-8.4-20.7-16-4.6-7.5-7-17.9-7-31v-68.5h-29.8v-41h32.3l10.7-45.5h44.8v45.5h42.6v41h-42.6v58.6c0,6.8,1.4,12,4.2,15.6,2.6,3.4,8.5,5.1,17.4,5.1h21.1v34.8l-1.5.5c-2.8,1-6.6,1.9-11.5,2.7-4.8.8-9.6,1.4-14.5,1.9-4.9.5-9.2.7-12.7.7ZM926.6,311.9h29.8v72.9c0,12.3,2.1,21.9,6.3,28.7,4.1,6.7,10.3,11.4,18.4,14.1,8.3,2.8,18.9,4.2,31.3,4.2s7.5-.2,12.2-.7c4.7-.5,9.5-1.1,14.2-1.9,3.8-.6,6.9-1.3,9.3-2v-27.2h-16.6c-10.5,0-17.3-2.2-20.9-6.8-3.4-4.3-5.1-10.5-5.1-18.3v-63.1h42.6v-32h-42.6v-45.5h-36.9l-10.7,45.5h-31.4v32Z"/>
  </g>
  <g>
    <path class="st0" d="M1140.5,434.1c-9.5,0-18.3-.7-26.5-2-8.2-1.4-15.4-3.7-21.4-7.1-6.1-3.4-10.8-8-14.2-13.9-3.4-5.9-5.1-13.4-5.1-22.5s3.3-21.8,9.8-28.8c6.6-7,15.9-12.2,28.1-15.4,12.2-3.2,26.5-5.2,43-6.1,16.5-.9,34.7-1.3,54.6-1.3v-4.6c0-6-1.5-10.7-4.5-14.2-3-3.5-7.3-6-13-7.5-5.7-1.5-12.8-2.3-21.3-2.3s-12.2.5-18,1.4c-5.8,1-10.5,2.5-14.2,4.5-3.7,2-5.5,4.8-5.5,8.3v2.3h-54.2c-.2-.8-.3-1.4-.3-2v-2.3c0-9.1,3.6-17.1,10.7-24,7.1-7,17.8-12.4,31.9-16.4,14.1-4,31.5-5.9,52.1-5.9s35.6,1.7,49,5.1c13.3,3.4,23.4,8.8,30.3,16.2,6.9,7.4,10.3,17.4,10.3,30v61.1c0,3.3.8,6,2.3,8.1,1.5,2.1,4,3.2,7.2,3.2h15.4v30.7c-2.7,1.2-7.1,2.4-13,3.6-6,1.3-12.4,1.9-19.1,1.9s-17.1-1-22.9-2.9c-5.8-1.9-10.1-4.6-12.9-8-2.8-3.4-4.8-7.1-5.9-11.2h-2.3c-5.4,4.4-11.7,8.4-19,11.7-7.2,3.4-15.1,5.9-23.6,7.7-8.5,1.7-17.8,2.6-27.8,2.6ZM1155.6,400.2c4.4,0,9.6-.5,15.5-1.6,5.9-1.1,11.7-2.7,17.5-4.8,5.8-2.1,10.6-4.9,14.5-8.3,3.9-3.4,5.8-7.5,5.8-12.3v-8.7c-19.1,0-34.8.8-46.9,2.3-12.2,1.5-21.1,3.9-26.9,7.1-5.8,3.2-8.7,7.3-8.7,12.3s1.4,6.8,4.2,8.8c2.8,2,6.5,3.4,11,4.1,4.5.7,9.2,1,14,1Z"/>
    <path class="st2" d="M1254.9,436.3c-9.7,0-17.6-1-23.6-3-6.2-2.1-10.8-5-13.9-8.7-2.6-3.1-4.5-6.6-5.8-10.3-5.4,4.3-11.7,8.2-18.7,11.5-7.4,3.4-15.5,6.1-24.1,7.8-8.6,1.8-18.1,2.7-28.3,2.7s-18.6-.7-26.9-2.1c-8.4-1.4-15.9-3.9-22.2-7.3-6.4-3.6-11.5-8.5-15-14.7-3.6-6.2-5.4-14.1-5.4-23.6s3.5-22.9,10.4-30.3c6.8-7.3,16.6-12.7,29.2-16,12.3-3.2,26.9-5.3,43.5-6.2,15.9-.8,33.5-1.3,52.5-1.3v-2.4c0-5.4-1.3-9.7-3.9-12.7-2.7-3.1-6.7-5.4-11.9-6.8-5.5-1.5-12.5-2.2-20.7-2.2s-11.9.5-17.6,1.4c-5.5.9-10.1,2.4-13.5,4.2-3,1.6-4.4,3.6-4.4,6.3v4.5h-58.1l-.4-1.7c-.2-.9-.4-1.8-.4-2.6v-2.3c0-9.7,3.8-18.3,11.4-25.6,7.4-7.2,18.4-12.9,32.8-16.9,14.2-4,32-6,52.7-6s36.1,1.7,49.5,5.1c13.7,3.5,24.2,9.2,31.4,16.9,7.2,7.8,10.9,18.4,10.9,31.5v61.1c0,2.8.6,5.1,1.9,6.8,1.1,1.5,2.9,2.3,5.4,2.3h17.6v34.4l-1.4.6c-2.9,1.2-7.3,2.5-13.5,3.8-6.1,1.3-12.7,1.9-19.6,1.9ZM1210.1,409.8h4.8l.5,1.6c1.1,3.7,2.9,7.2,5.5,10.3,2.5,3,6.5,5.5,11.9,7.3,5.5,1.8,13,2.8,22.2,2.8s12.8-.6,18.7-1.8c4.9-1,8.7-2,11.3-3v-27h-13.1c-4,0-7.1-1.4-9-4.1-1.8-2.5-2.7-5.7-2.7-9.4v-61.1c0-11.9-3.3-21.5-9.7-28.5-6.5-7.1-16.3-12.3-29.2-15.6-13.1-3.3-29.4-5-48.4-5s-37.7,2-51.5,5.9c-13.7,3.8-24.1,9.2-30.9,15.8-6.8,6.6-10,13.9-10,22.4v2.1h50c0-3.1,1.2-7.3,6.7-10.3,3.9-2.1,8.9-3.7,14.9-4.7,5.9-1,12.1-1.5,18.3-1.5s16,.8,21.9,2.4c6.1,1.7,10.9,4.4,14.1,8.2,3.3,3.9,5,9.1,5,15.7v6.9h-2.2c-19.8,0-38.1.4-54.5,1.3-16.3.9-30.6,2.9-42.6,6-11.7,3.1-20.8,8-27,14.7-6.1,6.6-9.3,15.8-9.3,27.3s1.6,15.8,4.8,21.3c3.2,5.5,7.6,9.9,13.3,13.1,5.8,3.2,12.8,5.5,20.7,6.8,8.1,1.3,16.9,2,26.1,2s19-.9,27.4-2.6c8.3-1.7,16.1-4.2,23.1-7.5,7-3.3,13.3-7.1,18.5-11.4l.6-.5ZM1155.6,402.4c-4.9,0-9.8-.3-14.4-1-4.9-.7-8.9-2.2-12-4.5-3.4-2.5-5.1-6-5.1-10.6s3.3-10.7,9.8-14.3c6.1-3.4,15.2-5.8,27.7-7.4,12.2-1.6,28.1-2.3,47.2-2.3h2.2v10.9c0,5.5-2.2,10.2-6.6,14-4.1,3.5-9.2,6.5-15.2,8.7-5.9,2.2-11.9,3.8-17.9,4.9-6,1.1-11.3,1.6-15.9,1.6ZM1206.6,366.8c-17.9,0-32.9.8-44.4,2.3-11.8,1.5-20.6,3.8-26.1,6.8-5.1,2.8-7.5,6.2-7.5,10.4s1.1,5.4,3.3,7c2.5,1.8,5.9,3,10,3.7,4.4.7,9,1,13.7,1s9.4-.5,15.1-1.6c5.7-1,11.5-2.6,17.2-4.7,5.5-2,10.1-4.7,13.8-7.8,3.4-3,5-6.4,5-10.6v-6.5Z"/>
  </g>
  <g>
    <path class="st0" d="M1305.9,430.6v-210h53.6v210h-53.6Z"/>
    <path class="st2" d="M1361.7,432.8h-58.1v-214.5h58.1v214.5ZM1308.1,428.4h49.1v-205.6h-49.1v205.6Z"/>
  </g>
  <path class="st0" d="M540.3,171.7c-12.6,0-23-1.8-31.1-5.5-8.1-3.6-14.2-8.9-18.1-15.8-3.9-6.9-5.9-15.2-5.9-24.8v-59.7h9.4v61c0,12,3.9,21.2,11.8,27.6,7.9,6.4,19.2,9.6,34,9.6s26.1-3.2,34-9.6c7.9-6.4,11.8-15.6,11.8-27.6v-61h9.4v59.7c0,9.6-2,17.9-5.9,24.8-3.9,6.9-10,12.2-18.1,15.8-8.1,3.6-18.5,5.5-31.1,5.5Z"/>
  <path class="st0" d="M633.3,169.3v-103.5h7.9l1,18.9h1.6c3.9-5.8,8.4-10.2,13.5-13.3,5-3.1,10.3-5.2,15.6-6.3,5.4-1.1,10.4-1.7,15.1-1.7,8.9,0,16.4,1.2,22.4,3.6,6,2.4,10.6,6.4,13.8,11.8,3.1,5.4,4.7,12.8,4.7,21.9v68.5h-10v-66.3c0-7.1-.8-12.7-2.5-16.7-1.6-4.1-4-7.1-7-9-3-2-6.5-3.2-10.5-3.8-4-.6-8.3-.9-12.9-.9-6.8,0-13.5,1.5-20.1,4.5-6.6,3-12,7.3-16.2,12.8-4.3,5.5-6.4,12.1-6.4,19.9v59.6h-10Z"/>
  <path class="st0" d="M760,42v-15h10v15h-10ZM760,169.3v-103.5h10v103.5h-10Z"/>
  <path class="st0" d="M810.3,169.3v-94.4h-20.1v-9h20.1v-18.5c0-2.9.5-6,1.5-9.4,1-3.4,3.1-6.3,6.3-8.8,3.2-2.4,8.1-3.6,14.7-3.6s4.2,0,6,.2c1.8.1,3.4.3,4.9.5,1.5.2,2.9.5,4.2.9v7.5h-14c-4.5,0-7.8,1-10.1,3-2.3,2-3.4,5.1-3.4,9.3v18.9h27.5v9h-27.5v94.4h-10ZM868.2,42v-15h10v15h-10ZM868.2,169.3v-103.5h10v103.5h-10Z"/>
  <path class="st0" d="M962.2,171.7c-11.8,0-21.8-2-30-5.9-8.2-3.9-14.4-9.9-18.6-18-4.2-8.1-6.3-18.1-6.3-30.2s2.1-21.9,6.2-29.9c4.1-8,10.3-14,18.4-18.1,8.1-4.1,18.2-6.1,30.3-6.1s22.8,2.2,30.6,6.5c7.8,4.3,13.5,10.1,17.1,17.2,3.6,7.2,5.4,15.1,5.4,23.7v9.8h-97.2c0,10.2,2,18.4,6,24.6,4,6.2,9.4,10.6,16.2,13.3,6.8,2.7,14.5,4,23,4s14.2-1,19.3-3c5.1-2,9.2-4.4,12.4-7.3,3.1-2.9,5.4-5.9,6.9-9,1.4-3.1,2.2-5.9,2.4-8.3h9.6c-.1,3.7-1.1,7.6-2.9,11.8-1.8,4.2-4.6,8.2-8.5,11.9-3.9,3.7-9.1,6.8-15.7,9.2-6.6,2.4-14.9,3.6-24.7,3.6ZM918.1,111.7h86.8c0-7.9-1.2-14.3-3.7-19.4-2.5-5-5.8-9-10-11.9-4.2-2.9-8.9-4.9-14.2-6.1-5.2-1.2-10.6-1.8-16.1-1.8s-14.6,1.3-20.9,3.9c-6.3,2.6-11.4,6.8-15.2,12.6-3.9,5.8-6.1,13.3-6.6,22.6Z"/>
  <path class="st0" d="M1090.1,171.7c-10.9,0-20-2.1-27.2-6.2-7.3-4.1-12.8-10.2-16.4-18.3-3.7-8.1-5.5-17.9-5.5-29.6s1.9-21.7,5.7-29.7c3.8-8,9.5-14.1,17-18.2,7.5-4.1,16.9-6.2,28-6.2s11.3.7,16.2,2.1c4.9,1.4,9.3,3.4,13.3,6,3.9,2.6,7.3,6,10.2,10h1.2V27.1h10v142.2h-7.9l-1.4-16.9h-1.2c-4.5,6.4-10.2,11.2-17.2,14.5-7,3.2-15.3,4.8-24.9,4.8ZM1090.8,162.6c7.9,0,15-1.4,21.2-4.1,6.3-2.8,11.3-7.3,15-13.6,3.7-6.3,5.5-14.8,5.5-25.4v-3.9c0-8-1-14.8-3-20.3-2-5.5-4.9-9.9-8.7-13.3-3.7-3.3-8.1-5.8-13.1-7.3-5-1.5-10.4-2.3-16.1-2.3s-14.2,1.4-20.3,4.1c-6,2.8-10.8,7.2-14.4,13.5-3.5,6.2-5.3,14.7-5.3,25.5v3.9c0,10.6,1.7,19.1,5.1,25.4,3.4,6.3,8.1,10.8,14.1,13.6,6,2.8,12.6,4.1,20,4.1Z"/>
  <g>
    <g>
      <rect class="st0" x="23.3" y="110.7" width="56.1" height="46.9"/>
      <path class="st0" d="M79.5,110.7v46.9H23.3v-46.9h56.1M79.8,110.3H23v47.6h56.9v-47.6h0Z"/>
    </g>
    <g>
      <path class="st1" d="M459.3,207.9c-10.8-19.3-25.6-36.1-44.3-50.5-18.7-14.4-40.6-25.8-65.5-34.2-25-8.3-51.8-12.5-80.4-12.5H117.5v63.9l-17.1,12.8h0s-42.6,0-42.6,0v57.9h71.3v-38.6h.8c0,0,33.6-24.9,33.6-24.9h53l52.8-.5c16.9,0,33.5-1.4,48.5,3.6,15,5,27.3,8.7,38.7,17.5,11.4,8.8,20.3,19,26.7,30.6,6.4,11.6,9.6,23.9,9.6,37s-3.2,25.7-9.6,37.2c-6.4,11.5-15.3,21.6-26.7,30.4-11.4,8.8-24.9,14.2-40,19.1-11.2,3.7-23,4-35.3,3.9h-12.6c0-.1-53.2-.1-53.2-.1h-4l-38.4-28.3v-17.1l33-27.6v-.5h55.9v-70.8h-84.8v47.2l-31.3,30.7h-45.5v59.2h44.5l32.5,26.9v49.1h92.9c7.9,0,15.7-.5,23.5-1.6,15.4-2.1,41.3-6.1,55.6-10.9,25-8.4,46.8-19.8,65.5-34.2,18.7-14.4,33.5-31.3,44.3-50.6,10.8-19.3,16.2-39.9,16.2-62s-5.4-42.8-16.2-62Z"/>
      <path class="st0" d="M269,110.7c28.6,0,55.4,4.2,80.4,12.5,25,8.4,46.8,19.8,65.5,34.2,18.7,14.4,33.5,31.3,44.3,50.5,10.8,19.3,16.2,39.9,16.2,62s-5.4,42.8-16.2,62c-10.8,19.3-25.6,36.1-44.3,50.6-18.7,14.4-40.6,25.8-65.5,34.2-14.4,4.8-40.3,8.8-55.6,10.9-7.8,1.1-15.6,1.6-23.5,1.6h-92.9v-49.1l-32.5-26.9h-44.5v-59.2h45.5l31.3-30.7v-47.2h84.8v70.8h-55.8v.5c0,0-33.1,27.6-33.1,27.6v17.1l38.4,28.3h69.9c1.2.1,2.4.1,3.6.1,11,0,21.6-.5,31.7-3.9,15-5,28.6-10.4,40-19.1,11.4-8.8,20.3-18.9,26.7-30.4,6.4-11.5,9.6-23.9,9.6-37.2s-3.2-25.3-9.6-37c-6.4-11.6-15.3-21.8-26.7-30.6-11.4-8.8-23.7-12.6-38.7-17.5-9.7-3.2-20.1-3.8-30.7-3.8s-11.8.2-17.8.2l-52.8.5h-53l-33.6,24.8h-.8v38.6H57.8v-57.9h42.6s17.1-12.8,17.1-12.8v-63.9h151.5M269,110.3H117.2v64.1l-16.9,12.6h-42.8v58.6h72v-38.6h.4s.1,0,.1,0h0c0,0,33.5-24.8,33.5-24.8h52.9l52.8-.5c3,0,6,0,9,0,2.9,0,5.9,0,8.8,0,10,0,20.6.5,30.6,3.7l2.2.7c13.7,4.5,25.6,8.4,36.4,16.7,11.3,8.7,20.2,19,26.6,30.5,6.4,11.5,9.6,23.9,9.6,36.8s-3.2,25.6-9.6,37c-6.4,11.4-15.3,21.5-26.6,30.3-11.9,9.1-26.2,14.6-39.8,19.1-10.3,3.4-21.3,3.9-31.6,3.9s-2.4,0-3.6,0h-12.6c0-.1-53.2-.1-53.2-.1h-3.9l-38.2-28.1v-16.8l32.9-27.5h.1c0,0,0-.2,0-.2v-.2h55.9v-71.5h-85.5v47.4l-31.1,30.5h-45.7v59.9h44.7l32.3,26.7v49.3h93.2c7.9,0,15.8-.5,23.6-1.6,14.5-2,41.1-6.1,55.7-11,24.9-8.3,46.9-19.8,65.6-34.3,18.7-14.4,33.6-31.5,44.4-50.7,10.8-19.2,16.3-40.2,16.3-62.2s-5.5-43-16.3-62.2c-10.8-19.2-25.8-36.3-44.4-50.7-18.7-14.4-40.7-25.9-65.6-34.3-24.9-8.3-52-12.6-80.5-12.6h0Z"/>
    </g>
  </g>
</svg>