<?xml version="1.0" encoding="UTF-8"?>
<svg id="Layer_1" xmlns="http://www.w3.org/2000/svg" version="1.1" viewBox="0 0 950 179.8">
  <!-- Generator: Adobe Illustrator 29.8.1, SVG Export Plug-In . SVG Version: 2.1.1 Build 2)  -->
  <defs>
    <style>
      .st0 {
        fill: #fff;
      }

      .st1 {
        isolation: isolate;
      }
    </style>
  </defs>
  <g class="st1">
    <g class="st1">
      <path class="st0" d="M16.2,135.6V42.4h75.3c6.7,0,12.2,1.4,16.5,4.1,4.3,2.7,7.5,6.3,9.7,10.7s3.3,9.4,3.3,14.8-1.4,10.8-4.3,15.7c-2.8,4.8-7.2,8.7-12.9,11.5l19.4,36.5h-26.3l-16.4-32.3h-40.7v32.3h-23.6ZM39.7,84.8h44.9c3.8,0,6.8-1.2,9-3.5s3.3-5.3,3.3-8.9-.5-4.7-1.5-6.4c-1-1.7-2.4-3-4.2-3.9-1.8-.9-4-1.4-6.6-1.4h-44.9v24h0Z"/>
      <path class="st0" d="M179.2,137.2c-9.5,0-17.7-1.3-24.5-4-6.9-2.7-12.2-6.8-15.9-12.3-3.8-5.5-5.6-12.5-5.6-21s1.8-15.3,5.5-20.8c3.7-5.6,8.9-9.7,15.7-12.5,6.8-2.8,14.8-4.1,24.1-4.1s17.9,1.4,24.5,4.1c6.7,2.7,11.7,6.7,15.2,12.1,3.4,5.3,5.2,11.9,5.2,19.8v6.2h-67.9c.3,4.2,1.4,7.5,3.4,10.1s4.8,4.5,8.3,5.6c3.6,1.2,7.8,1.8,12.5,1.8s4.5-.2,6.8-.7c2.4-.5,4.7-1.2,6.8-2.1s3.9-2.1,5.4-3.5c1.4-1.4,2.3-3.1,2.4-5.1h21.7c0,3.8-1,7.3-3,10.6-2,3.3-4.9,6.1-8.7,8.4-3.8,2.4-8.4,4.2-13.8,5.5-5.4,1.3-11.4,2-18.1,2h0ZM155.5,91.8h45.2c0-2.4-.5-4.4-1.6-6.2s-2.6-3.3-4.7-4.5-4.4-2.1-7-2.7-5.5-.9-8.5-.9c-4.4,0-8.3.6-11.7,1.7s-6.1,2.8-8,4.9-3.1,4.7-3.6,7.7h0Z"/>
      <path class="st0" d="M239,53.1v-15.7h21.2v15.7h-21.2ZM239,135.6v-71.5h21.2v71.5h-21.2Z"/>
      <path class="st0" d="M278.8,135.6v-71.5h17.1l1.5,12.1h1.2c2.5-3.4,5.4-6.1,8.6-8.1s6.6-3.4,10.3-4.3c3.7-.9,7.3-1.3,10.8-1.3,6.7,0,12.3,1.1,16.7,3.3,4.5,2.2,7.7,5.7,9.7,10.4h1.4c2.5-3.4,5.4-6.1,8.7-8.1,3.3-2,6.7-3.4,10.4-4.3,3.7-.9,7.3-1.3,10.9-1.3,6.4,0,11.8,1.1,16.2,3.2,4.4,2.1,7.7,5.4,9.8,9.7,2.2,4.3,3.3,9.8,3.3,16.4v43.8h-21.2v-40.4c0-2.8-.4-5.2-1.2-7.3-.8-2-1.9-3.7-3.3-5s-3.1-2.2-5-2.8c-1.9-.6-4.1-.9-6.6-.9-3.6,0-7,.8-10.1,2.4s-5.7,3.8-7.6,6.5c-1.9,2.8-2.9,6-2.9,9.7v37.7h-21.2v-40.4c0-2.8-.4-5.2-1.1-7.3-.7-2-1.8-3.7-3.2-5-1.4-1.3-3.1-2.2-5-2.8-1.9-.6-4.2-.9-6.7-.9-3.6,0-7,.8-10.1,2.4s-5.6,3.8-7.5,6.5c-1.9,2.8-2.8,6-2.8,9.7v37.7h-21.2v.2Z"/>
      <path class="st0" d="M461,137.2c-4.3,0-8.4-.3-12.1-1s-7-1.8-9.8-3.4c-2.8-1.6-5-3.7-6.6-6.4-1.6-2.7-2.4-6.1-2.4-10.3s1.6-10.2,4.7-13.5c3.2-3.3,7.6-5.7,13.4-7.1,5.7-1.4,12.5-2.4,20.2-2.8s16.2-.6,25.3-.6v-2.6c0-3-.7-5.3-2.2-7.1-1.4-1.7-3.6-3-6.6-3.7-2.9-.8-6.8-1.2-11.5-1.2s-6.8.2-9.7.7c-2.9.5-5.3,1.3-7,2.3s-2.6,2.4-2.6,4v1.4h-21.3c0-.4-.2-.7-.2-1v-1.2c0-4.2,1.6-8,4.7-11.2,3.2-3.2,7.9-5.7,14.2-7.5,6.3-1.8,14.1-2.6,23.4-2.6s16,.8,21.9,2.3c5.9,1.5,10.4,4.1,13.5,7.6,3.1,3.5,4.6,8.2,4.6,14.1v30c0,1.6.3,2.9,1,3.9.7.9,1.8,1.4,3.5,1.4h7.1v13c-1.1.5-2.9,1-5.4,1.6s-5.3.9-8.4.9-7.4-.5-9.8-1.4-4.1-2.3-5.2-3.9c-1.1-1.7-1.9-3.5-2.3-5.5h-1.1c-2.5,2.3-5.5,4.2-9,5.8s-7.3,2.9-11.3,3.7-8.4,1.3-13,1.3h0ZM466.5,122.1c2.5,0,5.4-.3,8.5-.9s6.1-1.4,9-2.6c2.9-1.1,5.2-2.6,7.1-4.3,1.8-1.7,2.7-3.8,2.7-6.2v-3.8c-9.7,0-17.6.4-23.9,1.1-6.2.7-10.9,1.9-14,3.4s-4.6,3.7-4.6,6.5.7,3.3,2.2,4.3c1.5.9,3.4,1.6,5.8,2,2.3.4,4.7.5,7.2.5h0Z"/>
      <path class="st0" d="M550.6,162.8c-3.9,0-7.5-.6-10.9-1.8s-6.1-3-8.2-5.6c-2.1-2.5-3.1-5.9-3.1-10s1.3-6.6,3.8-9.4c2.5-2.7,5.8-4.7,9.8-6.1-2.9-1.4-5-3.3-6.3-5.7-1.3-2.4-2-4.9-2-7.6s1.3-7.1,3.9-9.8c2.6-2.8,6.1-4.5,10.5-5.1-3.6-1.9-6.5-4.3-8.7-7.3-2.2-2.9-3.3-6.1-3.3-9.4,0-5.6,1.6-10.1,4.9-13.4,3.3-3.3,8-5.7,14.1-7.1s13.6-2.1,22.2-2.1,6.2,0,9.1.4c2.9.3,5.6.7,8.3,1.2,4.4-2,7.8-4.1,10-6.4,2.2-2.3,3.5-4.4,3.9-6.3h19.7c0,3.4-.9,6.4-2.3,8.8-1.4,2.4-3.5,4.5-6.2,6.1-2.7,1.6-6,2.8-9.8,3.7,2.7,1.8,4.8,4,6.3,6.6s2.2,5.5,2.2,8.7c0,5.2-1.4,9.4-4.3,12.7-2.8,3.3-7,5.8-12.3,7.4-5.4,1.6-11.9,2.4-19.6,2.4h-18.4c-2.7,0-4.8.5-6.2,1.4s-2.2,2.2-2.2,3.8.7,2.9,2.1,3.9c1.4,1,3.7,1.5,6.8,1.5h41.2c7.1,0,12.6,2,16.3,6,3.7,4,5.6,9.2,5.6,15.4s-1.2,8.6-3.7,12.1c-2.4,3.4-5.7,6.1-9.7,8.1-4,1.9-8.5,2.9-13.4,2.9h-50.1ZM557.5,149.3h40.5c1.4,0,2.8-.3,3.9-.9,1.2-.6,2.1-1.5,2.8-2.6.7-1.2,1.1-2.5,1.1-3.9,0-2.3-.8-4-2.4-5.3-1.6-1.3-3.4-1.9-5.5-1.9h-40c-2.4,0-4.3.6-5.9,1.8-1.6,1.2-2.4,3-2.4,5.2s.7,4.1,2.2,5.5,3.3,2.1,5.5,2.1h.2ZM577.2,94.5c6.1,0,11-.7,14.5-2,3.5-1.4,5.3-3.8,5.3-7.3s-1.8-6-5.3-7.3c-3.5-1.4-8.4-2-14.5-2s-11,.7-14.5,2c-3.5,1.4-5.3,3.8-5.3,7.3s.8,4.5,2.4,5.8c1.6,1.4,3.9,2.3,6.8,2.8,3,.5,6.5.7,10.6.7Z"/>
      <path class="st0" d="M636.8,53.1v-15.7h21.2v15.7h-21.2ZM636.8,135.6v-71.5h21.2v71.5h-21.2Z"/>
      <path class="st0" d="M676.7,135.6v-71.5h17.1l1.5,12.1h1.2c2.6-3.4,5.6-6.1,8.9-8.1,3.3-2,6.8-3.4,10.6-4.3,3.8-.9,7.4-1.3,11.1-1.3,6.8,0,12.5,1.1,17,3.2,4.6,2.1,8,5.4,10.2,9.7,2.3,4.3,3.4,9.8,3.4,16.4v43.8h-21.2v-40.4c0-2.8-.4-5.2-1.2-7.3-.8-2-1.9-3.7-3.4-5-1.4-1.3-3.2-2.2-5.4-2.8-2.1-.6-4.5-.9-7.1-.9-3.8,0-7.3.8-10.6,2.4s-5.9,3.8-7.9,6.5c-2,2.8-3.1,6-3.1,9.7v37.7h-21.2.1Z"/>
      <path class="st0" d="M819.1,137.2c-9.5,0-17.7-1.3-24.5-4-6.9-2.7-12.2-6.8-15.9-12.3-3.8-5.5-5.6-12.5-5.6-21s1.8-15.3,5.5-20.8c3.7-5.6,8.9-9.7,15.7-12.5,6.8-2.8,14.8-4.1,24.1-4.1s17.9,1.4,24.5,4.1c6.7,2.7,11.7,6.7,15.2,12.1,3.4,5.3,5.2,11.9,5.2,19.8v6.2h-67.9c.3,4.2,1.4,7.5,3.4,10.1s4.8,4.5,8.3,5.6c3.6,1.2,7.7,1.8,12.5,1.8s4.5-.2,6.8-.7c2.4-.5,4.7-1.2,6.8-2.1s3.9-2.1,5.4-3.5c1.4-1.4,2.3-3.1,2.4-5.1h21.7c0,3.8-1,7.3-3,10.6-2,3.3-4.9,6.1-8.7,8.4-3.8,2.4-8.4,4.2-13.8,5.5-5.4,1.3-11.4,2-18.1,2h0ZM795.3,91.8h45.2c0-2.4-.5-4.4-1.6-6.2s-2.6-3.3-4.7-4.5c-2-1.2-4.4-2.1-7-2.7s-5.5-.9-8.5-.9c-4.4,0-8.3.6-11.7,1.7s-6.1,2.8-8,4.9-3.1,4.7-3.6,7.7h-.1Z"/>
      <path class="st0" d="M878,159.6v-9.9c2.2-.4,4.2-1.2,6-2.4,1.9-1.3,3.3-2.9,4.5-4.9,1.1-2,1.7-4.3,1.7-6.7h-11.3v-22.6h25.4v20.1c0,6.3-1.3,11.4-3.9,15.1-2.6,3.7-5.9,6.5-9.9,8.3s-8.2,2.8-12.5,3.2v-.2Z"/>
    </g>
  </g>
  <g class="st1">
    <g class="st1">
      <path class="st0" d="M-9.5,795.2v-93.2h75.3c6.7,0,12.2,1.4,16.5,4.1,4.3,2.7,7.5,6.3,9.7,10.7s3.3,9.4,3.3,14.8-1.4,10.8-4.3,15.7c-2.8,4.8-7.2,8.7-12.9,11.5l19.4,36.5h-26.3l-16.4-32.3H14.1v32.3H-9.5ZM14,744.4h44.9c3.8,0,6.8-1.2,9-3.5s3.3-5.3,3.3-8.9-.5-4.7-1.5-6.4c-1-1.7-2.4-3-4.2-3.9-1.8-.9-4-1.4-6.6-1.4H14v24h0Z"/>
      <path class="st0" d="M153.5,796.8c-9.5,0-17.7-1.3-24.5-4-6.9-2.7-12.2-6.8-15.9-12.3-3.8-5.5-5.6-12.5-5.6-21s1.8-15.3,5.5-20.8c3.7-5.6,8.9-9.7,15.7-12.5,6.8-2.8,14.8-4.1,24.1-4.1s17.9,1.4,24.5,4.1c6.7,2.7,11.7,6.7,15.2,12.1,3.4,5.3,5.2,11.9,5.2,19.8v6.2h-67.9c.3,4.2,1.4,7.5,3.4,10.1s4.8,4.5,8.3,5.6c3.6,1.2,7.8,1.8,12.5,1.8s4.5-.2,6.8-.7c2.4-.5,4.7-1.2,6.8-2.1s3.9-2.1,5.4-3.5c1.4-1.4,2.3-3.1,2.4-5.1h21.7c0,3.8-1,7.3-3,10.6-2,3.3-4.9,6.1-8.7,8.4-3.8,2.4-8.4,4.2-13.8,5.5-5.4,1.3-11.4,2-18.1,2h0ZM129.8,751.4h45.2c0-2.4-.5-4.4-1.6-6.2s-2.6-3.3-4.7-4.5-4.4-2.1-7-2.7-5.5-.9-8.5-.9c-4.4,0-8.3.6-11.7,1.7s-6.1,2.8-8,4.9-3.1,4.7-3.6,7.7h0Z"/>
      <path class="st0" d="M213.3,712.7v-15.7h21.2v15.7h-21.2ZM213.3,795.2v-71.5h21.2v71.5h-21.2Z"/>
      <path class="st0" d="M253.1,795.2v-71.5h17.1l1.5,12.1h1.2c2.5-3.4,5.4-6.1,8.6-8.1s6.6-3.4,10.3-4.3c3.7-.9,7.3-1.3,10.8-1.3,6.7,0,12.3,1.1,16.7,3.3,4.5,2.2,7.7,5.7,9.7,10.4h1.4c2.5-3.4,5.4-6.1,8.7-8.1,3.3-2,6.7-3.4,10.4-4.3,3.7-.9,7.3-1.3,10.9-1.3,6.4,0,11.8,1.1,16.2,3.2,4.4,2.1,7.7,5.4,9.8,9.7,2.2,4.3,3.3,9.8,3.3,16.4v43.8h-21.2v-40.4c0-2.8-.4-5.2-1.2-7.3-.8-2-1.9-3.7-3.3-5s-3.1-2.2-5-2.8c-1.9-.6-4.1-.9-6.6-.9-3.6,0-7,.8-10.1,2.4s-5.7,3.8-7.6,6.5c-1.9,2.8-2.9,6-2.9,9.7v37.7h-21.2v-40.4c0-2.8-.4-5.2-1.1-7.3-.7-2-1.8-3.7-3.2-5-1.4-1.3-3.1-2.2-5-2.8-1.9-.6-4.2-.9-6.7-.9-3.6,0-7,.8-10.1,2.4s-5.6,3.8-7.5,6.5c-1.9,2.8-2.8,6-2.8,9.7v37.7h-21.2v.2Z"/>
      <path class="st0" d="M435.3,796.8c-4.3,0-8.4-.3-12.1-1s-7-1.8-9.8-3.4c-2.8-1.6-5-3.7-6.6-6.4-1.6-2.7-2.4-6.1-2.4-10.3s1.6-10.2,4.7-13.5c3.2-3.3,7.6-5.7,13.4-7.1,5.7-1.4,12.5-2.4,20.2-2.8s16.2-.6,25.3-.6v-2.6c0-3-.7-5.3-2.2-7.1-1.4-1.7-3.6-3-6.6-3.7-2.9-.8-6.8-1.2-11.5-1.2s-6.8.2-9.7.7c-2.9.5-5.3,1.3-7,2.3s-2.6,2.4-2.6,4v1.4h-21.3c0-.4-.2-.7-.2-1v-1.2c0-4.2,1.6-8,4.7-11.2,3.2-3.2,7.9-5.7,14.2-7.5,6.3-1.8,14.1-2.6,23.4-2.6s16,.8,21.9,2.3c5.9,1.5,10.4,4.1,13.5,7.6,3.1,3.5,4.6,8.2,4.6,14.1v30c0,1.6.3,2.9,1,3.9.7.9,1.8,1.4,3.5,1.4h7.1v13c-1.1.5-2.9,1-5.4,1.6s-5.3.9-8.4.9-7.4-.5-9.8-1.4-4.1-2.3-5.2-3.9c-1.1-1.7-1.9-3.5-2.3-5.5h-1.1c-2.5,2.3-5.5,4.2-9,5.8s-7.3,2.9-11.3,3.7-8.4,1.3-13,1.3h0ZM440.8,781.7c2.5,0,5.4-.3,8.5-.9s6.1-1.4,9-2.6c2.9-1.1,5.2-2.6,7.1-4.3,1.8-1.7,2.7-3.8,2.7-6.2v-3.8c-9.7,0-17.6.4-23.9,1.1-6.2.7-10.9,1.9-14,3.4s-4.6,3.7-4.6,6.5.7,3.3,2.2,4.3c1.5.9,3.4,1.6,5.8,2,2.3.4,4.7.5,7.2.5h0Z"/>
      <path class="st0" d="M524.9,822.4c-3.9,0-7.5-.6-10.9-1.8s-6.1-3-8.2-5.6c-2.1-2.5-3.1-5.9-3.1-10s1.3-6.6,3.8-9.4c2.5-2.7,5.8-4.7,9.8-6.1-2.9-1.4-5-3.3-6.3-5.7-1.3-2.4-2-4.9-2-7.6s1.3-7.1,3.9-9.8c2.6-2.8,6.1-4.5,10.5-5.1-3.6-1.9-6.5-4.3-8.7-7.3-2.2-2.9-3.3-6.1-3.3-9.4,0-5.6,1.6-10.1,4.9-13.4,3.3-3.3,8-5.7,14.1-7.1s13.6-2.1,22.2-2.1,6.2,0,9.1.4c2.9.3,5.6.7,8.3,1.2,4.4-2,7.8-4.1,10-6.4,2.2-2.3,3.5-4.4,3.9-6.3h19.7c0,3.4-.9,6.4-2.3,8.8-1.4,2.4-3.5,4.5-6.2,6.1-2.7,1.6-6,2.8-9.8,3.7,2.7,1.8,4.8,4,6.3,6.6s2.2,5.5,2.2,8.7c0,5.2-1.4,9.4-4.3,12.7-2.8,3.3-7,5.8-12.3,7.4-5.4,1.6-11.9,2.4-19.6,2.4h-18.4c-2.7,0-4.8.5-6.2,1.4s-2.2,2.2-2.2,3.8.7,2.9,2.1,3.9c1.4,1,3.7,1.5,6.8,1.5h41.2c7.1,0,12.6,2,16.3,6,3.7,4,5.6,9.2,5.6,15.4s-1.2,8.6-3.7,12.1c-2.4,3.4-5.7,6.1-9.7,8.1-4,1.9-8.5,2.9-13.4,2.9h-50.1ZM531.8,808.9h40.5c1.4,0,2.8-.3,3.9-.9,1.2-.6,2.1-1.5,2.8-2.6.7-1.2,1.1-2.5,1.1-3.9,0-2.3-.8-4-2.4-5.3-1.6-1.3-3.4-1.9-5.5-1.9h-40c-2.4,0-4.3.6-5.9,1.8-1.6,1.2-2.4,3-2.4,5.2s.7,4.1,2.2,5.5,3.3,2.1,5.5,2.1h.2ZM551.5,754.1c6.1,0,11-.7,14.5-2,3.5-1.4,5.3-3.8,5.3-7.3s-1.8-6-5.3-7.3c-3.5-1.4-8.4-2-14.5-2s-11,.7-14.5,2c-3.5,1.4-5.3,3.8-5.3,7.3s.8,4.5,2.4,5.8c1.6,1.4,3.9,2.3,6.8,2.8,3,.5,6.5.7,10.6.7Z"/>
      <path class="st0" d="M611.1,712.7v-15.7h21.2v15.7h-21.2ZM611.1,795.2v-71.5h21.2v71.5h-21.2Z"/>
      <path class="st0" d="M651,795.2v-71.5h17.1l1.5,12.1h1.2c2.6-3.4,5.6-6.1,8.9-8.1,3.3-2,6.8-3.4,10.6-4.3,3.8-.9,7.4-1.3,11.1-1.3,6.8,0,12.5,1.1,17,3.2,4.6,2.1,8,5.4,10.2,9.7,2.3,4.3,3.4,9.8,3.4,16.4v43.8h-21.2v-40.4c0-2.8-.4-5.2-1.2-7.3-.8-2-1.9-3.7-3.4-5-1.4-1.3-3.2-2.2-5.4-2.8-2.1-.6-4.5-.9-7.1-.9-3.8,0-7.3.8-10.6,2.4s-5.9,3.8-7.9,6.5c-2,2.8-3.1,6-3.1,9.7v37.7h-21.2.1Z"/>
      <path class="st0" d="M793.4,796.8c-9.5,0-17.7-1.3-24.5-4-6.9-2.7-12.2-6.8-15.9-12.3-3.8-5.5-5.6-12.5-5.6-21s1.8-15.3,5.5-20.8c3.7-5.6,8.9-9.7,15.7-12.5,6.8-2.8,14.8-4.1,24.1-4.1s17.9,1.4,24.5,4.1c6.7,2.7,11.7,6.7,15.2,12.1,3.4,5.3,5.2,11.9,5.2,19.8v6.2h-67.9c.3,4.2,1.4,7.5,3.4,10.1s4.8,4.5,8.3,5.6c3.6,1.2,7.7,1.8,12.5,1.8s4.5-.2,6.8-.7c2.4-.5,4.7-1.2,6.8-2.1s3.9-2.1,5.4-3.5c1.4-1.4,2.3-3.1,2.4-5.1h21.7c0,3.8-1,7.3-3,10.6-2,3.3-4.9,6.1-8.7,8.4-3.8,2.4-8.4,4.2-13.8,5.5-5.4,1.3-11.4,2-18.1,2h0ZM769.6,751.4h45.2c0-2.4-.5-4.4-1.6-6.2s-2.6-3.3-4.7-4.5c-2-1.2-4.4-2.1-7-2.7s-5.5-.9-8.5-.9c-4.4,0-8.3.6-11.7,1.7s-6.1,2.8-8,4.9-3.1,4.7-3.6,7.7h-.1Z"/>
      <path class="st0" d="M852.3,819.2v-9.9c2.2-.4,4.2-1.2,6-2.4,1.9-1.3,3.3-2.9,4.5-4.9,1.1-2,1.7-4.3,1.7-6.7h-11.3v-22.6h25.4v20.1c0,6.3-1.3,11.4-3.9,15.1-2.6,3.7-5.9,6.5-9.9,8.3s-8.2,2.8-12.5,3.2v-.2Z"/>
    </g>
  </g>
  <g class="st1">
    <g class="st1">
      <path class="st0" d="M119.1,942.7v-91.8h74.2c6.6,0,12,1.3,16.2,4s7.4,6.2,9.6,10.6c2.1,4.4,3.2,9.2,3.2,14.6s-1.4,10.7-4.2,15.4c-2.8,4.8-7.1,8.5-12.8,11.3l19.1,35.9h-25.9l-16.2-31.8h-40.1v31.8h-23.1ZM142.2,892.7h44.2c3.7,0,6.7-1.1,8.9-3.4,2.2-2.3,3.3-5.2,3.3-8.8s-.5-4.6-1.5-6.3-2.4-3-4.1-3.9c-1.8-.9-4-1.3-6.5-1.3h-44.2v23.6h0Z"/>
      <path class="st0" d="M279.7,944.3c-9.4,0-17.4-1.3-24.2-3.9-6.8-2.6-12-6.7-15.7-12.1s-5.5-12.3-5.5-20.7,1.8-15,5.4-20.5,8.8-9.6,15.5-12.3,14.6-4.1,23.7-4.1,17.6,1.3,24.2,4,11.6,6.6,15,11.9c3.4,5.3,5.1,11.8,5.1,19.5v6.1h-66.9c.3,4.1,1.4,7.4,3.3,10,2,2.5,4.7,4.4,8.2,5.5,3.5,1.2,7.6,1.7,12.4,1.7s4.4-.2,6.7-.7c2.4-.5,4.6-1.2,6.7-2.1s3.9-2,5.3-3.4,2.2-3.1,2.4-5h21.4c0,3.7-1,7.2-2.9,10.4-2,3.2-4.8,6-8.6,8.3-3.7,2.3-8.3,4.1-13.6,5.4-5.3,1.3-11.2,1.9-17.8,1.9h-.1ZM256.3,899.5h44.5c0-2.3-.5-4.3-1.6-6.1s-2.6-3.2-4.6-4.4-4.3-2.1-6.9-2.7c-2.6-.6-5.4-.9-8.4-.9-4.4,0-8.2.6-11.6,1.7-3.3,1.1-6,2.7-7.9,4.8s-3.1,4.6-3.5,7.6h0Z"/>
      <path class="st0" d="M338.6,861.5v-15.5h20.8v15.5h-20.8ZM338.6,942.7v-70.4h20.8v70.4h-20.8Z"/>
      <path class="st0" d="M377.9,942.7v-70.4h16.8l1.5,11.9h1.2c2.6-3.4,5.5-6.1,8.8-8,3.3-2,6.7-3.4,10.4-4.2,3.7-.8,7.3-1.3,10.9-1.3,6.7,0,12.3,1,16.8,3.1s7.9,5.3,10.1,9.6,3.3,9.7,3.3,16.2v43.2h-20.8v-39.8c0-2.8-.4-5.1-1.2-7.1-.8-2-1.9-3.6-3.3-4.9-1.4-1.2-3.2-2.2-5.3-2.7-2.1-.6-4.4-.9-7-.9-3.7,0-7.2.8-10.4,2.3-3.2,1.6-5.8,3.7-7.8,6.4s-3,5.9-3,9.6v37.1h-21Z"/>
      <path class="st0" d="M500.6,942.7l-33.5-70.4h22.7l14.7,33.3c.5,1.3,1.2,3.1,2.1,5.1.8,2.1,1.7,4.2,2.6,6.3.9,2.1,1.7,4.1,2.4,5.9h1.1c.7-1.8,1.5-3.8,2.3-5.9.8-2.2,1.6-4.3,2.5-6.4.8-2.1,1.5-3.8,2.1-5.1l14.7-33.1h21.9l-33.5,70.4h-22.1Z"/>
      <path class="st0" d="M607.7,944.3c-9.4,0-17.4-1.3-24.2-3.9s-12-6.7-15.7-12.1-5.5-12.3-5.5-20.7,1.8-15,5.4-20.5c3.6-5.5,8.8-9.6,15.5-12.3s14.6-4.1,23.7-4.1,17.6,1.3,24.2,4c6.6,2.7,11.6,6.6,15,11.9,3.4,5.3,5.1,11.8,5.1,19.5v6.1h-66.9c.3,4.1,1.4,7.4,3.3,10,2,2.5,4.7,4.4,8.2,5.5,3.5,1.2,7.6,1.7,12.4,1.7s4.4-.2,6.7-.7c2.4-.5,4.6-1.2,6.7-2.1,2.1-.9,3.9-2,5.3-3.4,1.4-1.4,2.2-3.1,2.4-5h21.4c0,3.7-1,7.2-2.9,10.4-2,3.2-4.8,6-8.6,8.3-3.7,2.3-8.3,4.1-13.6,5.4s-11.2,1.9-17.8,1.9h-.1ZM584.3,899.5h44.5c0-2.3-.5-4.3-1.6-6.1s-2.6-3.2-4.6-4.4-4.3-2.1-6.9-2.7c-2.6-.6-5.4-.9-8.4-.9-4.4,0-8.2.6-11.6,1.7-3.3,1.1-6,2.7-7.9,4.8s-3.1,4.6-3.5,7.6h0Z"/>
      <path class="st0" d="M666.6,942.7v-70.4h16.8l1.5,11.9h1.2c2.6-3.4,5.5-6.1,8.8-8,3.3-2,6.7-3.4,10.4-4.2s7.3-1.3,10.9-1.3c6.7,0,12.3,1,16.8,3.1s7.9,5.3,10.1,9.6c2.2,4.3,3.3,9.7,3.3,16.2v43.2h-20.8v-39.8c0-2.8-.4-5.1-1.2-7.1s-1.9-3.6-3.3-4.9c-1.4-1.2-3.2-2.2-5.3-2.7-2.1-.6-4.4-.9-7-.9-3.7,0-7.2.8-10.4,2.3-3.2,1.6-5.8,3.7-7.8,6.4s-3,5.9-3,9.6v37.1h-21Z"/>
      <path class="st0" d="M795.8,944.3c-5.4,0-9.9-.7-13.4-2.1s-6.1-3.7-7.8-7.1c-1.7-3.3-2.5-7.9-2.5-13.7v-33.9h-13.6v-15.2h14.3l4.1-20.8h16v20.8h19.4v15.2h-19.4v31.3c0,3.4.6,5.9,1.9,7.7,1.3,1.7,4.1,2.6,8.3,2.6h9.1v13c-1.2.4-2.9.8-4.9,1.2-2,.4-4.1.6-6.1.8-2.1.2-3.9.3-5.4.3h0Z"/>
      <path class="st0" d="M826.4,966.3v-9.8c2.1-.4,4.1-1.2,5.9-2.4,1.8-1.2,3.3-2.9,4.4-4.9,1.1-2,1.7-4.2,1.7-6.6h-11.1v-22.3h25v19.8c0,6.2-1.3,11.2-3.8,14.9-2.5,3.7-5.8,6.4-9.8,8.1s-8.1,2.8-12.4,3.1h0Z"/>
    </g>
  </g>
  <g class="st1">
    <g class="st1">
      <path class="st0" d="M197.2,1078v-93.3h75.4c6.7,0,12.2,1.4,16.5,4.1s7.5,6.3,9.7,10.7c2.2,4.4,3.3,9.4,3.3,14.8s-1.4,10.8-4.3,15.7c-2.9,4.8-7.2,8.7-13,11.5l19.4,36.5h-26.3l-16.4-32.3h-40.7v32.3h-23.6ZM220.7,1027.3h44.9c3.8,0,6.8-1.2,9-3.5s3.3-5.3,3.3-8.9-.5-4.7-1.5-6.4c-1-1.7-2.4-3-4.2-3.9-1.8-.9-4-1.4-6.7-1.4h-44.9v24h.1Z"/>
      <path class="st0" d="M360.4,1079.7c-9.5,0-17.7-1.3-24.6-4s-12.2-6.8-16-12.3-5.6-12.5-5.6-21,1.8-15.3,5.5-20.8c3.7-5.6,8.9-9.7,15.8-12.5,6.8-2.8,14.9-4.1,24.1-4.1s17.9,1.4,24.6,4.1,11.8,6.7,15.2,12.1c3.4,5.3,5.2,11.9,5.2,19.8v6.2h-68c.3,4.2,1.4,7.5,3.4,10.1s4.8,4.5,8.4,5.6c3.6,1.2,7.8,1.8,12.6,1.8s4.5-.2,6.9-.7,4.7-1.2,6.8-2.1c2.1-.9,3.9-2.1,5.4-3.5,1.4-1.4,2.3-3.1,2.4-5.1h21.7c0,3.8-1,7.3-3,10.6-2,3.3-4.9,6.1-8.7,8.4-3.8,2.4-8.4,4.2-13.8,5.5s-11.4,2-18.1,2h-.2ZM336.7,1034.2h45.2c0-2.4-.5-4.4-1.6-6.2s-2.6-3.3-4.7-4.5-4.4-2.1-7-2.7-5.5-.9-8.6-.9c-4.4,0-8.4.6-11.7,1.7-3.4,1.1-6.1,2.8-8,4.9s-3.1,4.7-3.6,7.7h0Z"/>
      <path class="st0" d="M454.4,1079.7c-7.4,0-13.9-1.4-19.4-4.1s-9.8-6.9-13-12.4c-3.1-5.6-4.7-12.5-4.7-20.8s1.5-15.5,4.6-21,7.3-9.6,12.8-12.4c5.4-2.7,11.7-4.1,18.7-4.1s7,.4,10.3,1.2c3.3.8,6.4,1.9,9.3,3.5,2.9,1.5,5.3,3.5,7.3,5.8h1v-35.6h21.3v98.3h-17.2l-1.8-11.3h-1.1c-3.4,4.7-7.6,8-12.4,10-4.8,1.9-10.1,2.9-15.7,2.9h0ZM460.1,1062.7c4.5,0,8.4-.8,11.5-2.4,3.2-1.6,5.6-3.9,7.3-6.9,1.7-3,2.5-6.5,2.5-10.6v-1.1c0-3.2-.5-6-1.4-8.4-1-2.4-2.4-4.5-4.2-6.2-1.9-1.7-4.1-3.1-6.8-4-2.7-1-5.7-1.4-9-1.4s-8.2.8-11.3,2.4c-3.1,1.6-5.5,3.8-7.1,6.7-1.6,2.9-2.4,6.4-2.4,10.5v2c0,4.1.8,7.6,2.5,10.5s4.1,5.1,7.2,6.7,6.9,2.3,11.3,2.3h-.1Z"/>
      <path class="st0" d="M564.4,1079.7c-9.5,0-17.7-1.3-24.6-4-6.9-2.7-12.2-6.8-16-12.3s-5.6-12.5-5.6-21,1.8-15.3,5.5-20.8c3.7-5.6,8.9-9.7,15.8-12.5,6.8-2.8,14.9-4.1,24.1-4.1s17.9,1.4,24.6,4.1c6.7,2.7,11.8,6.7,15.2,12.1,3.4,5.3,5.2,11.9,5.2,19.8v6.2h-68c.3,4.2,1.4,7.5,3.4,10.1s4.8,4.5,8.4,5.6c3.6,1.2,7.8,1.8,12.6,1.8s4.5-.2,6.9-.7,4.7-1.2,6.8-2.1,3.9-2.1,5.4-3.5c1.4-1.4,2.3-3.1,2.4-5.1h21.7c0,3.8-1,7.3-3,10.6-2,3.3-4.9,6.1-8.7,8.4-3.8,2.4-8.4,4.2-13.8,5.5-5.4,1.3-11.4,2-18.1,2h-.2ZM540.6,1034.2h45.2c0-2.4-.5-4.4-1.6-6.2s-2.6-3.3-4.7-4.5-4.4-2.1-7-2.7-5.5-.9-8.6-.9c-4.4,0-8.4.6-11.7,1.7-3.4,1.1-6.1,2.8-8,4.9s-3.1,4.7-3.6,7.7h0Z"/>
      <path class="st0" d="M631.5,1078v-56.1h-14.8v-15.5h14.8v-5.3c0-5.1,1-9.3,2.9-12.7,1.9-3.4,4.8-6,8.5-7.7s8.2-2.6,13.6-2.6,3.8,0,5.8.3c2.1.2,4.1.4,6.1.7,2,.3,3.8.7,5.4,1.3v13.2h-9.2c-4.3,0-7.4.6-9.2,1.7s-2.6,3.1-2.6,5.9v5.2h21v15.5h-21v56.1h-21.3ZM685.4,995.5v-15.8h21.2v15.8h-21.2ZM685.4,1078v-71.6h21.2v71.6h-21.2Z"/>
      <path class="st0" d="M725.3,1078v-71.6h17.1l1.5,12.1h1.2c2.6-3.4,5.6-6.2,8.9-8.1,3.3-2,6.8-3.4,10.6-4.3s7.4-1.3,11.1-1.3c6.8,0,12.5,1.1,17,3.2,4.6,2.1,8,5.4,10.3,9.7,2.3,4.3,3.4,9.8,3.4,16.4v43.9h-21.2v-40.5c0-2.8-.4-5.2-1.2-7.3-.8-2-1.9-3.7-3.4-5-1.4-1.3-3.2-2.2-5.4-2.8-2.1-.6-4.5-.9-7.1-.9-3.8,0-7.3.8-10.6,2.4s-5.9,3.8-7.9,6.5c-2,2.8-3.1,6-3.1,9.7v37.8h-21.2,0Z"/>
      <path class="st0" d="M867.9,1079.7c-9.5,0-17.7-1.3-24.6-4-6.9-2.7-12.2-6.8-16-12.3s-5.6-12.5-5.6-21,1.8-15.3,5.5-20.8c3.7-5.6,8.9-9.7,15.8-12.5,6.8-2.8,14.9-4.1,24.1-4.1s17.9,1.4,24.6,4.1c6.7,2.7,11.8,6.7,15.2,12.1,3.4,5.3,5.2,11.9,5.2,19.8v6.2h-68c.3,4.2,1.4,7.5,3.4,10.1s4.8,4.5,8.4,5.6c3.6,1.2,7.8,1.8,12.6,1.8s4.5-.2,6.9-.7,4.7-1.2,6.8-2.1,3.9-2.1,5.4-3.5c1.4-1.4,2.3-3.1,2.4-5.1h21.7c0,3.8-1,7.3-3,10.6-2,3.3-4.9,6.1-8.7,8.4-3.8,2.4-8.4,4.2-13.8,5.5-5.4,1.3-11.4,2-18.1,2h-.2ZM844.1,1034.2h45.2c0-2.4-.5-4.4-1.6-6.2s-2.6-3.3-4.7-4.5c-2-1.2-4.4-2.1-7-2.7s-5.5-.9-8.6-.9c-4.4,0-8.4.6-11.7,1.7-3.4,1.1-6.1,2.8-8,4.9s-3.1,4.7-3.6,7.7h0Z"/>
    </g>
  </g>
</svg>